<svg width="1480" height="446" viewBox="0 0 1480 446" fill="none" xmlns="http://www.w3.org/2000/svg">
<rect width="1480" height="446" fill="#F7F7F7"/>
<path d="M145.096 242.932H143.332V256H153.214V258.826H154.834V254.434H153.682V242.932H151.918V254.434H145.096V242.932ZM162.779 253.012C162.779 253.714 161.825 254.884 160.331 254.884C158.495 254.884 157.577 253.732 157.577 251.77H164.507C164.507 248.404 163.157 246.208 160.421 246.208C157.271 246.208 155.867 248.53 155.867 251.5C155.867 254.254 157.433 256.27 160.097 256.27C163.031 256.27 164.021 254.488 164.381 253.012H162.779ZM157.577 250.492C157.577 249.016 158.729 247.648 160.187 247.648C162.149 247.648 162.779 249.016 162.869 250.492H157.577ZM167.274 246.478V251.608C167.274 254.398 166.932 254.794 166.032 254.794C165.762 254.794 165.51 254.776 165.384 254.758V256C165.636 256.072 165.978 256.144 166.41 256.144C167.922 256.144 168.876 255.028 168.876 252.148V247.81H172.638V256H174.24V246.478H167.274ZM178.188 246.478H176.586V256H180.492C183.066 256 184.074 254.722 184.074 253.246C184.074 251.572 182.886 250.312 180.456 250.312H178.188V246.478ZM178.188 251.644H180.474C181.77 251.644 182.436 252.166 182.436 253.156C182.436 254.218 181.932 254.668 180.474 254.668H178.188V251.644ZM192.532 246.478H190.93V256H192.532V251.644H196.978V256H198.58V246.478H196.978V250.312H192.532V246.478ZM202.336 249.376C202.426 248.656 202.678 247.54 204.496 247.54C206.008 247.54 206.71 248.026 206.71 249.07C206.71 250.06 206.53 250.258 204.028 250.456C200.68 250.708 200.392 252.382 200.392 253.516C200.392 255.172 201.616 256.27 203.362 256.27C205.216 256.27 206.17 255.388 206.8 254.722C206.872 255.442 207.07 256.18 208.492 256.18C208.852 256.18 209.086 256.072 209.356 256V254.83C209.176 254.866 208.978 254.902 208.834 254.902C208.51 254.902 208.312 254.704 208.312 254.308V248.872C208.312 246.424 205.54 246.208 204.784 246.208C202.426 246.208 200.86 247.09 200.86 249.376H202.336ZM206.71 252.706C206.71 253.984 205.27 254.938 203.776 254.938C202.588 254.938 202.03 254.308 202.03 253.264C202.03 252.058 203.29 251.842 204.082 251.734C206.062 251.482 206.458 251.338 206.71 251.14V252.706ZM212.606 246.478H211.004V256H223.838V246.478H222.236V254.668H218.222V246.478H216.62V254.668H212.606V246.478ZM232.564 253.012C232.564 253.714 231.61 254.884 230.116 254.884C228.28 254.884 227.362 253.732 227.362 251.77H234.292C234.292 248.404 232.942 246.208 230.206 246.208C227.056 246.208 225.652 248.53 225.652 251.5C225.652 254.254 227.218 256.27 229.882 256.27C232.816 256.27 233.806 254.488 234.166 253.012H232.564ZM227.362 250.492C227.362 249.016 228.514 247.648 229.972 247.648C231.934 247.648 232.564 249.016 232.654 250.492H227.362ZM237.708 246.478H236.106V256H237.78L242.442 248.872H242.478V256H244.08V246.478H242.406L237.744 253.606H237.708V246.478ZM238.392 242.932H237.492C237.492 243.616 237.816 245.416 240.282 245.416C242.676 245.416 242.982 243.58 242.982 242.932H242.1C241.848 243.688 241.488 244.372 240.246 244.372C238.986 244.372 238.536 243.742 238.392 242.932ZM255.681 247.648C257.985 247.648 258.147 250.096 258.147 251.662C258.147 254.2 256.635 254.884 255.627 254.884C253.881 254.884 253.071 253.282 253.071 251.212C253.071 249.97 253.197 247.648 255.681 247.648ZM251.469 259.762H253.071V254.884C253.521 255.658 254.367 256.27 255.645 256.27C258.885 256.27 259.785 253.228 259.785 250.96C259.785 248.26 258.363 246.208 255.843 246.208C254.187 246.208 253.485 247.054 252.963 247.828V246.478H251.469V259.762ZM263.033 249.376C263.123 248.656 263.375 247.54 265.193 247.54C266.705 247.54 267.407 248.026 267.407 249.07C267.407 250.06 267.227 250.258 264.725 250.456C261.377 250.708 261.089 252.382 261.089 253.516C261.089 255.172 262.313 256.27 264.059 256.27C265.913 256.27 266.867 255.388 267.497 254.722C267.569 255.442 267.767 256.18 269.189 256.18C269.549 256.18 269.783 256.072 270.053 256V254.83C269.873 254.866 269.675 254.902 269.531 254.902C269.207 254.902 269.009 254.704 269.009 254.308V248.872C269.009 246.424 266.237 246.208 265.481 246.208C263.123 246.208 261.557 247.09 261.557 249.376H263.033ZM267.407 252.706C267.407 253.984 265.967 254.938 264.473 254.938C263.285 254.938 262.727 254.308 262.727 253.264C262.727 252.058 263.987 251.842 264.779 251.734C266.759 251.482 267.155 251.338 267.407 251.14V252.706ZM277.965 242.932C277.713 243.49 277.353 243.616 275.661 243.868C272.691 244.318 271.179 246.856 271.179 250.204C271.179 254.578 273.015 256.27 275.463 256.27C278.649 256.27 280.017 253.768 280.017 251.374C280.017 248.98 278.577 246.658 275.913 246.658C274.617 246.658 273.339 247.396 272.565 248.476C273.015 246.442 274.131 245.362 276.219 245.092C277.713 244.894 278.739 244.714 279.423 242.932H277.965ZM275.607 254.884C273.285 254.884 272.817 252.868 272.817 251.374C272.817 249.952 273.627 247.99 275.607 247.99C277.911 247.99 278.379 250.366 278.379 251.374C278.379 252.382 277.929 254.884 275.607 254.884ZM281.445 251.23C281.445 253.678 282.813 256.27 285.855 256.27C288.897 256.27 290.265 253.678 290.265 251.23C290.265 248.782 288.897 246.208 285.855 246.208C282.813 246.208 281.445 248.782 281.445 251.23ZM283.083 251.23C283.083 249.952 283.569 247.594 285.855 247.594C288.141 247.594 288.627 249.952 288.627 251.23C288.627 252.508 288.141 254.884 285.855 254.884C283.569 254.884 283.083 252.508 283.083 251.23ZM291.012 246.478V247.81H294.144V256H295.746V247.81H298.878V246.478H291.012ZM311.011 246.478H309.409V256H311.011V246.478ZM301.885 246.478H300.283V256H304.189C306.763 256 307.771 254.722 307.771 253.246C307.771 251.572 306.583 250.312 304.153 250.312H301.885V246.478ZM301.885 251.644H304.171C305.467 251.644 306.133 252.166 306.133 253.156C306.133 254.218 305.629 254.668 304.171 254.668H301.885V251.644ZM317.867 251.23C317.867 253.678 319.235 256.27 322.277 256.27C325.319 256.27 326.687 253.678 326.687 251.23C326.687 248.782 325.319 246.208 322.277 246.208C319.235 246.208 317.867 248.782 317.867 251.23ZM319.505 251.23C319.505 249.952 319.991 247.594 322.277 247.594C324.563 247.594 325.049 249.952 325.049 251.23C325.049 252.508 324.563 254.884 322.277 254.884C319.991 254.884 319.505 252.508 319.505 251.23ZM334.76 242.932C334.508 243.49 334.148 243.616 332.456 243.868C329.486 244.318 327.974 246.856 327.974 250.204C327.974 254.578 329.81 256.27 332.258 256.27C335.444 256.27 336.812 253.768 336.812 251.374C336.812 248.98 335.372 246.658 332.708 246.658C331.412 246.658 330.134 247.396 329.36 248.476C329.81 246.442 330.926 245.362 333.014 245.092C334.508 244.894 335.534 244.714 336.218 242.932H334.76ZM332.402 254.884C330.08 254.884 329.612 252.868 329.612 251.374C329.612 249.952 330.422 247.99 332.402 247.99C334.706 247.99 335.174 250.366 335.174 251.374C335.174 252.382 334.724 254.884 332.402 254.884ZM345.152 253.012C345.152 253.714 344.198 254.884 342.704 254.884C340.868 254.884 339.95 253.732 339.95 251.77H346.88C346.88 248.404 345.53 246.208 342.794 246.208C339.644 246.208 338.24 248.53 338.24 251.5C338.24 254.254 339.806 256.27 342.47 256.27C345.404 256.27 346.394 254.488 346.754 253.012H345.152ZM339.95 250.492C339.95 249.016 341.102 247.648 342.56 247.648C344.522 247.648 345.152 249.016 345.242 250.492H339.95ZM356.289 249.682C356.163 248.026 355.227 246.208 352.725 246.208C349.593 246.208 348.171 248.566 348.171 251.5C348.171 254.254 349.755 256.27 352.419 256.27C355.209 256.27 356.127 254.146 356.289 252.634H354.741C354.471 254.092 353.553 254.884 352.473 254.884C350.277 254.884 349.881 252.868 349.881 251.23C349.881 249.538 350.511 247.648 352.491 247.648C353.841 247.648 354.543 248.404 354.741 249.682H356.289ZM357.869 246.478V256H359.471V247.81H363.917V256H365.519V246.478H357.869ZM374.244 253.012C374.244 253.714 373.29 254.884 371.796 254.884C369.96 254.884 369.042 253.732 369.042 251.77H375.972C375.972 248.404 374.622 246.208 371.886 246.208C368.736 246.208 367.332 248.53 367.332 251.5C367.332 254.254 368.898 256.27 371.562 256.27C374.496 256.27 375.486 254.488 375.846 253.012H374.244ZM369.042 250.492C369.042 249.016 370.194 247.648 371.652 247.648C373.614 247.648 374.244 249.016 374.334 250.492H369.042ZM377.605 246.478V249.628C377.605 251.59 379.045 252.112 380.467 252.112C381.529 252.112 382.519 251.986 383.473 251.752V256H385.075V246.478H383.473V250.42C382.735 250.654 381.655 250.744 380.953 250.744C379.999 250.744 379.207 250.438 379.207 249.394V246.478H377.605ZM389.02 246.478H387.418V256H389.092L393.754 248.872H393.79V256H395.392V246.478H393.718L389.056 253.606H389.02V246.478ZM396.674 246.478V247.81H399.806V256H401.408V247.81H404.54V246.478H396.674ZM407.547 246.478H405.945V256H409.851C412.425 256 413.433 254.722 413.433 253.246C413.433 251.572 412.245 250.312 409.815 250.312H407.547V246.478ZM407.547 251.644H409.833C411.129 251.644 411.795 252.166 411.795 253.156C411.795 254.218 411.291 254.668 409.833 254.668H407.547V251.644ZM421.891 247.81H424.249C425.653 247.81 426.121 248.224 426.121 248.98C426.121 250.024 425.599 250.42 424.213 250.42H421.891V247.81ZM421.891 251.68H424.591C425.887 251.68 426.679 252.166 426.679 253.192C426.679 254.254 425.995 254.668 424.753 254.668H421.891V251.68ZM420.289 256H424.789C427.057 256 428.281 254.992 428.281 253.48C428.281 251.842 427.129 251.194 426.121 250.96C426.949 250.726 427.723 250.042 427.723 248.908C427.723 247.594 426.715 246.478 424.609 246.478H420.289V256ZM440.826 246.478H439.224V256H440.826V246.478ZM431.7 246.478H430.098V256H434.004C436.578 256 437.586 254.722 437.586 253.246C437.586 251.572 436.398 250.312 433.968 250.312H431.7V246.478ZM431.7 251.644H433.986C435.282 251.644 435.948 252.166 435.948 253.156C435.948 254.218 435.444 254.668 433.986 254.668H431.7V251.644ZM450.754 249.682C450.628 248.026 449.692 246.208 447.19 246.208C444.058 246.208 442.636 248.566 442.636 251.5C442.636 254.254 444.22 256.27 446.884 256.27C449.674 256.27 450.592 254.146 450.754 252.634H449.206C448.936 254.092 448.018 254.884 446.938 254.884C444.742 254.884 444.346 252.868 444.346 251.23C444.346 249.538 444.976 247.648 446.956 247.648C448.306 247.648 449.008 248.404 449.206 249.682H450.754ZM451.812 251.23C451.812 253.678 453.18 256.27 456.222 256.27C459.264 256.27 460.632 253.678 460.632 251.23C460.632 248.782 459.264 246.208 456.222 246.208C453.18 246.208 451.812 248.782 451.812 251.23ZM453.45 251.23C453.45 249.952 453.936 247.594 456.222 247.594C458.508 247.594 458.994 249.952 458.994 251.23C458.994 252.508 458.508 254.884 456.222 254.884C453.936 254.884 453.45 252.508 453.45 251.23ZM462.121 246.478V249.628C462.121 251.59 463.561 252.112 464.983 252.112C466.045 252.112 467.035 251.986 467.989 251.752V256H469.591V246.478H467.989V250.42C467.251 250.654 466.171 250.744 465.469 250.744C464.515 250.744 463.723 250.438 463.723 249.394V246.478H462.121ZM473.356 249.376C473.446 248.656 473.698 247.54 475.516 247.54C477.028 247.54 477.73 248.026 477.73 249.07C477.73 250.06 477.55 250.258 475.048 250.456C471.7 250.708 471.412 252.382 471.412 253.516C471.412 255.172 472.636 256.27 474.382 256.27C476.236 256.27 477.19 255.388 477.82 254.722C477.892 255.442 478.09 256.18 479.512 256.18C479.872 256.18 480.106 256.072 480.376 256V254.83C480.196 254.866 479.998 254.902 479.854 254.902C479.53 254.902 479.332 254.704 479.332 254.308V248.872C479.332 246.424 476.56 246.208 475.804 246.208C473.446 246.208 471.88 247.09 471.88 249.376H473.356ZM477.73 252.706C477.73 253.984 476.29 254.938 474.796 254.938C473.608 254.938 473.05 254.308 473.05 253.264C473.05 252.058 474.31 251.842 475.102 251.734C477.082 251.482 477.478 251.338 477.73 251.14V252.706ZM483.626 246.478H482.024V256H483.698L488.36 248.872H488.396V256H489.998V246.478H488.324L483.662 253.606H483.626V246.478ZM484.31 242.932H483.41C483.41 243.616 483.734 245.416 486.2 245.416C488.594 245.416 488.9 243.58 488.9 242.932H488.018C487.766 243.688 487.406 244.372 486.164 244.372C484.904 244.372 484.454 243.742 484.31 242.932ZM493.944 246.478H492.342V256H505.176V246.478H503.574V254.668H499.56V246.478H497.958V254.668H493.944V246.478ZM509.114 246.478H507.512V256H509.186L513.848 248.872H513.884V256H515.486V246.478H513.812L509.15 253.606H509.114V246.478ZM519.432 246.478H517.83V256H519.504L524.166 248.872H524.202V256H525.804V246.478H524.13L519.468 253.606H519.432V246.478ZM520.116 242.932H519.216C519.216 243.616 519.54 245.416 522.006 245.416C524.4 245.416 524.706 243.58 524.706 242.932H523.824C523.572 243.688 523.212 244.372 521.97 244.372C520.71 244.372 520.26 243.742 520.116 242.932ZM540.789 249.682C540.663 248.026 539.727 246.208 537.225 246.208C534.093 246.208 532.671 248.566 532.671 251.5C532.671 254.254 534.255 256.27 536.919 256.27C539.709 256.27 540.627 254.146 540.789 252.634H539.241C538.971 254.092 538.053 254.884 536.973 254.884C534.777 254.884 534.381 252.868 534.381 251.23C534.381 249.538 535.011 247.648 536.991 247.648C538.341 247.648 539.043 248.404 539.241 249.682H540.789ZM548.759 253.012C548.759 253.714 547.805 254.884 546.311 254.884C544.475 254.884 543.557 253.732 543.557 251.77H550.487C550.487 248.404 549.137 246.208 546.401 246.208C543.251 246.208 541.847 248.53 541.847 251.5C541.847 254.254 543.413 256.27 546.077 256.27C549.011 256.27 550.001 254.488 550.361 253.012H548.759ZM543.557 250.492C543.557 249.016 544.709 247.648 546.167 247.648C548.129 247.648 548.759 249.016 548.849 250.492H543.557ZM556.513 247.648C558.817 247.648 558.979 250.096 558.979 251.662C558.979 254.2 557.467 254.884 556.459 254.884C554.713 254.884 553.903 253.282 553.903 251.212C553.903 249.97 554.029 247.648 556.513 247.648ZM552.301 259.762H553.903V254.884C554.353 255.658 555.199 256.27 556.477 256.27C559.717 256.27 560.617 253.228 560.617 250.96C560.617 248.26 559.195 246.208 556.675 246.208C555.019 246.208 554.317 247.054 553.795 247.828V246.478H552.301V259.762ZM564.045 247.81H566.403C567.807 247.81 568.275 248.224 568.275 248.98C568.275 250.024 567.753 250.42 566.367 250.42H564.045V247.81ZM564.045 251.68H566.745C568.041 251.68 568.833 252.166 568.833 253.192C568.833 254.254 568.149 254.668 566.907 254.668H564.045V251.68ZM562.443 256H566.943C569.211 256 570.435 254.992 570.435 253.48C570.435 251.842 569.283 251.194 568.275 250.96C569.103 250.726 569.877 250.042 569.877 248.908C569.877 247.594 568.869 246.478 566.763 246.478H562.443V256ZM573.854 246.478H572.252V256H573.926L578.588 248.872H578.624V256H580.226V246.478H578.552L573.89 253.606H573.854V246.478ZM590.166 249.682C590.04 248.026 589.104 246.208 586.602 246.208C583.47 246.208 582.048 248.566 582.048 251.5C582.048 254.254 583.632 256.27 586.296 256.27C589.086 256.27 590.004 254.146 590.166 252.634H588.618C588.348 254.092 587.43 254.884 586.35 254.884C584.154 254.884 583.758 252.868 583.758 251.23C583.758 249.538 584.388 247.648 586.368 247.648C587.718 247.648 588.42 248.404 588.618 249.682H590.166ZM598.393 246.478H596.791V256H598.393V251.644H602.839V256H604.441V246.478H602.839V250.312H598.393V246.478ZM608.197 249.376C608.287 248.656 608.539 247.54 610.357 247.54C611.869 247.54 612.571 248.026 612.571 249.07C612.571 250.06 612.391 250.258 609.889 250.456C606.541 250.708 606.253 252.382 606.253 253.516C606.253 255.172 607.477 256.27 609.223 256.27C611.077 256.27 612.031 255.388 612.661 254.722C612.733 255.442 612.931 256.18 614.353 256.18C614.713 256.18 614.947 256.072 615.217 256V254.83C615.037 254.866 614.839 254.902 614.695 254.902C614.371 254.902 614.173 254.704 614.173 254.308V248.872C614.173 246.424 611.401 246.208 610.645 246.208C608.287 246.208 606.721 247.09 606.721 249.376H608.197ZM612.571 252.706C612.571 253.984 611.131 254.938 609.637 254.938C608.449 254.938 607.891 254.308 607.891 253.264C607.891 252.058 609.151 251.842 609.943 251.734C611.923 251.482 612.319 251.338 612.571 251.14V252.706ZM618.467 246.478H616.865V256H629.699V246.478H628.097V254.668H624.083V246.478H622.481V254.668H618.467V246.478ZM633.637 246.478H632.035V256H633.709L638.371 248.872H638.407V256H640.009V246.478H638.335L633.673 253.606H633.637V246.478ZM642.354 246.478V256H643.92V250.474C643.92 249.466 643.83 248.422 643.83 248.422H643.956L646.944 256H648.096L651.084 248.422H651.21C651.21 248.422 651.12 249.466 651.12 250.474V256H652.686V246.478H650.472L647.538 253.948L644.604 246.478H642.354ZM661.674 246.478H660.072V256H661.674V252.4L663.024 251.14L666.102 256H668.01L664.158 250.024L667.794 246.478H665.76L661.674 250.618V246.478ZM670.448 246.478V251.608C670.448 254.398 670.106 254.794 669.206 254.794C668.936 254.794 668.684 254.776 668.558 254.758V256C668.81 256.072 669.152 256.144 669.584 256.144C671.096 256.144 672.05 255.028 672.05 252.148V247.81H675.812V256H677.414V246.478H670.448ZM681.362 246.478H679.76V256H681.434L686.096 248.872H686.132V256H687.734V246.478H686.06L681.398 253.606H681.362V246.478ZM696.468 253.012C696.468 253.714 695.514 254.884 694.02 254.884C692.184 254.884 691.266 253.732 691.266 251.77H698.196C698.196 248.404 696.846 246.208 694.11 246.208C690.96 246.208 689.556 248.53 689.556 251.5C689.556 254.254 691.122 256.27 693.786 256.27C696.72 256.27 697.71 254.488 698.07 253.012H696.468ZM691.266 250.492C691.266 249.016 692.418 247.648 693.876 247.648C695.838 247.648 696.468 249.016 696.558 250.492H691.266ZM701.612 246.478H700.01V256H701.612V251.644H706.058V256H707.66V246.478H706.058V250.312H701.612V246.478ZM708.932 246.478V247.81H712.064V256H713.666V247.81H716.798V246.478H708.932ZM719.625 249.376C719.715 248.656 719.967 247.54 721.785 247.54C723.297 247.54 723.999 248.026 723.999 249.07C723.999 250.06 723.819 250.258 721.317 250.456C717.969 250.708 717.681 252.382 717.681 253.516C717.681 255.172 718.905 256.27 720.651 256.27C722.505 256.27 723.459 255.388 724.089 254.722C724.161 255.442 724.359 256.18 725.781 256.18C726.141 256.18 726.375 256.072 726.645 256V254.83C726.465 254.866 726.267 254.902 726.123 254.902C725.799 254.902 725.601 254.704 725.601 254.308V248.872C725.601 246.424 722.829 246.208 722.073 246.208C719.715 246.208 718.149 247.09 718.149 249.376H719.625ZM723.999 252.706C723.999 253.984 722.559 254.938 721.065 254.938C719.877 254.938 719.319 254.308 719.319 253.264C719.319 252.058 720.579 251.842 721.371 251.734C723.351 251.482 723.747 251.338 723.999 251.14V252.706ZM728.293 246.478V256H729.859V250.474C729.859 249.466 729.769 248.422 729.769 248.422H729.895L732.883 256H734.035L737.023 248.422H737.149C737.149 248.422 737.059 249.466 737.059 250.474V256H738.625V246.478H736.411L733.477 253.948L730.543 246.478H728.293ZM743.271 254.074H741.363V256H743.271V254.074ZM144.826 274.932V279.072C144.826 282.114 144.7 283.842 143.458 286.434H142.36V290.826H143.98V288H152.908V290.826H154.528V286.434H153.376V274.932H144.826ZM151.612 286.434H145.24C146.374 284.184 146.59 282.312 146.59 279.414V276.498H151.612V286.434ZM157.53 281.376C157.62 280.656 157.872 279.54 159.689 279.54C161.202 279.54 161.904 280.026 161.904 281.07C161.904 282.06 161.724 282.258 159.222 282.456C155.874 282.708 155.586 284.382 155.586 285.516C155.586 287.172 156.81 288.27 158.556 288.27C160.41 288.27 161.364 287.388 161.994 286.722C162.066 287.442 162.264 288.18 163.686 288.18C164.046 288.18 164.28 288.072 164.55 288V286.83C164.37 286.866 164.172 286.902 164.027 286.902C163.704 286.902 163.506 286.704 163.506 286.308V280.872C163.506 278.424 160.734 278.208 159.978 278.208C157.62 278.208 156.054 279.09 156.054 281.376H157.53ZM161.904 284.706C161.904 285.984 160.464 286.938 158.97 286.938C157.782 286.938 157.224 286.308 157.224 285.264C157.224 284.058 158.484 283.842 159.276 283.734C161.256 283.482 161.652 283.338 161.904 283.14V284.706ZM165.135 278.478V279.81H168.267V288H169.869V279.81H173.001V278.478H165.135ZM176.008 278.478H174.406V288H178.312C180.886 288 181.894 286.722 181.894 285.246C181.894 283.572 180.706 282.312 178.276 282.312H176.008V278.478ZM176.008 283.644H178.294C179.59 283.644 180.256 284.166 180.256 285.156C180.256 286.218 179.752 286.668 178.294 286.668H176.008V283.644ZM190.352 279.81H192.71C194.114 279.81 194.582 280.224 194.582 280.98C194.582 282.024 194.06 282.42 192.674 282.42H190.352V279.81ZM190.352 283.68H193.052C194.348 283.68 195.14 284.166 195.14 285.192C195.14 286.254 194.456 286.668 193.214 286.668H190.352V283.68ZM188.75 288H193.25C195.518 288 196.742 286.992 196.742 285.48C196.742 283.842 195.59 283.194 194.582 282.96C195.41 282.726 196.184 282.042 196.184 280.908C196.184 279.594 195.176 278.478 193.07 278.478H188.75V288ZM198.037 283.23C198.037 285.678 199.405 288.27 202.447 288.27C205.489 288.27 206.857 285.678 206.857 283.23C206.857 280.782 205.489 278.208 202.447 278.208C199.405 278.208 198.037 280.782 198.037 283.23ZM199.675 283.23C199.675 281.952 200.161 279.594 202.447 279.594C204.733 279.594 205.219 281.952 205.219 283.23C205.219 284.508 204.733 286.884 202.447 286.884C200.161 286.884 199.675 284.508 199.675 283.23ZM209.818 281.196C210.034 280.098 210.664 279.594 212.014 279.594C212.914 279.594 213.958 279.936 213.958 280.98C213.958 281.934 213.508 282.456 212.122 282.456H211.258V283.716H212.212C213.382 283.716 214.264 284.184 214.264 285.3C214.264 286.416 213.22 286.884 212.05 286.884C210.394 286.884 209.71 286.344 209.566 285.012H208C208.18 286.704 208.972 288.27 212.122 288.27C214.21 288.27 215.92 287.28 215.92 285.516C215.92 283.914 214.804 283.32 213.958 283.032C214.75 282.816 215.614 282.168 215.614 280.926C215.614 279.414 214.174 278.208 212.014 278.208C209.35 278.208 208.432 279.972 208.288 281.196H209.818ZM217.736 278.478V288H219.302V282.474C219.302 281.466 219.212 280.422 219.212 280.422H219.338L222.326 288H223.478L226.466 280.422H226.592C226.592 280.422 226.502 281.466 226.502 282.474V288H228.068V278.478H225.854L222.92 285.948L219.986 278.478H217.736ZM229.888 283.23C229.888 285.678 231.256 288.27 234.298 288.27C237.34 288.27 238.708 285.678 238.708 283.23C238.708 280.782 237.34 278.208 234.298 278.208C231.256 278.208 229.888 280.782 229.888 283.23ZM231.526 283.23C231.526 281.952 232.012 279.594 234.298 279.594C236.584 279.594 237.07 281.952 237.07 283.23C237.07 284.508 236.584 286.884 234.298 286.884C232.012 286.884 231.526 284.508 231.526 283.23ZM246.269 278.478H244.739V282.69L241.193 278.478H239.159L242.849 282.672L238.997 288H240.923L244.019 283.734L244.739 284.58V288H246.269V284.58L247.079 283.734L250.103 288H252.011L248.159 282.672L251.867 278.478H249.815L246.269 282.726V278.478ZM254.934 278.478H253.332V288H254.934V283.644H259.38V288H260.982V278.478H259.38V282.312H254.934V278.478ZM262.794 283.23C262.794 285.678 264.162 288.27 267.204 288.27C270.246 288.27 271.614 285.678 271.614 283.23C271.614 280.782 270.246 278.208 267.204 278.208C264.162 278.208 262.794 280.782 262.794 283.23ZM264.432 283.23C264.432 281.952 264.918 279.594 267.204 279.594C269.49 279.594 269.976 281.952 269.976 283.23C269.976 284.508 269.49 286.884 267.204 286.884C264.918 286.884 264.432 284.508 264.432 283.23ZM281.02 281.682C280.894 280.026 279.958 278.208 277.456 278.208C274.324 278.208 272.902 280.566 272.902 283.5C272.902 286.254 274.486 288.27 277.15 288.27C279.94 288.27 280.858 286.146 281.02 284.634H279.472C279.202 286.092 278.284 286.884 277.204 286.884C275.008 286.884 274.612 284.868 274.612 283.23C274.612 281.538 275.242 279.648 277.222 279.648C278.572 279.648 279.274 280.404 279.472 281.682H281.02ZM281.801 278.478V279.81H284.933V288H286.535V279.81H289.667V278.478H281.801ZM292.674 278.478H291.072V288H294.978C297.552 288 298.56 286.722 298.56 285.246C298.56 283.572 297.372 282.312 294.942 282.312H292.674V278.478ZM292.674 283.644H294.96C296.256 283.644 296.922 284.166 296.922 285.156C296.922 286.218 296.418 286.668 294.96 286.668H292.674V283.644ZM311.68 274.932C311.428 275.49 311.068 275.616 309.376 275.868C306.406 276.318 304.894 278.856 304.894 282.204C304.894 286.578 306.73 288.27 309.178 288.27C312.364 288.27 313.732 285.768 313.732 283.374C313.732 280.98 312.292 278.658 309.628 278.658C308.332 278.658 307.054 279.396 306.28 280.476C306.73 278.442 307.846 277.362 309.934 277.092C311.428 276.894 312.454 276.714 313.138 274.932H311.68ZM309.322 286.884C307 286.884 306.532 284.868 306.532 283.374C306.532 281.952 307.342 279.99 309.322 279.99C311.626 279.99 312.094 282.366 312.094 283.374C312.094 284.382 311.644 286.884 309.322 286.884ZM317.284 278.478H315.682V288H317.356L322.018 280.872H322.054V288H323.656V278.478H321.982L317.32 285.606H317.284V278.478ZM327.152 281.196C327.368 280.098 327.998 279.594 329.348 279.594C330.248 279.594 331.292 279.936 331.292 280.98C331.292 281.934 330.842 282.456 329.456 282.456H328.592V283.716H329.546C330.716 283.716 331.598 284.184 331.598 285.3C331.598 286.416 330.554 286.884 329.384 286.884C327.728 286.884 327.044 286.344 326.9 285.012H325.334C325.514 286.704 326.306 288.27 329.456 288.27C331.544 288.27 333.254 287.28 333.254 285.516C333.254 283.914 332.138 283.32 331.292 283.032C332.084 282.816 332.948 282.168 332.948 280.926C332.948 279.414 331.508 278.208 329.348 278.208C326.684 278.208 325.766 279.972 325.622 281.196H327.152ZM336.672 278.478H335.07V288H336.672V283.644H341.118V288H342.72V278.478H341.118V282.312H336.672V278.478ZM351.445 285.012C351.445 285.714 350.491 286.884 348.997 286.884C347.161 286.884 346.243 285.732 346.243 283.77H353.173C353.173 280.404 351.823 278.208 349.087 278.208C345.937 278.208 344.533 280.53 344.533 283.5C344.533 286.254 346.099 288.27 348.763 288.27C351.697 288.27 352.687 286.488 353.047 285.012H351.445ZM346.243 282.492C346.243 281.016 347.395 279.648 348.853 279.648C350.815 279.648 351.445 281.016 351.535 282.492H346.243ZM362.582 281.682C362.456 280.026 361.52 278.208 359.018 278.208C355.886 278.208 354.464 280.566 354.464 283.5C354.464 286.254 356.048 288.27 358.712 288.27C361.502 288.27 362.42 286.146 362.582 284.634H361.034C360.764 286.092 359.846 286.884 358.766 286.884C356.57 286.884 356.174 284.868 356.174 283.23C356.174 281.538 356.804 279.648 358.784 279.648C360.134 279.648 360.836 280.404 361.034 281.682H362.582ZM363.19 278.478L366.718 288.252C365.944 290.214 365.836 290.448 365.026 290.448C364.594 290.448 364.252 290.358 364.054 290.286V291.744C364.306 291.816 364.504 291.888 364.738 291.888C366.574 291.888 366.988 291.366 367.69 289.728C369.004 286.668 370.768 281.592 371.884 278.478H370.12L367.582 286.236H367.546L365.008 278.478H363.19ZM385.891 281.682C385.765 280.026 384.829 278.208 382.327 278.208C379.195 278.208 377.773 280.566 377.773 283.5C377.773 286.254 379.357 288.27 382.021 288.27C384.811 288.27 385.729 286.146 385.891 284.634H384.343C384.073 286.092 383.155 286.884 382.075 286.884C379.879 286.884 379.483 284.868 379.483 283.23C379.483 281.538 380.113 279.648 382.093 279.648C383.443 279.648 384.145 280.404 384.343 281.682H385.891ZM386.949 283.23C386.949 285.678 388.317 288.27 391.359 288.27C394.401 288.27 395.769 285.678 395.769 283.23C395.769 280.782 394.401 278.208 391.359 278.208C388.317 278.208 386.949 280.782 386.949 283.23ZM388.587 283.23C388.587 281.952 389.073 279.594 391.359 279.594C393.645 279.594 394.131 281.952 394.131 283.23C394.131 284.508 393.645 286.884 391.359 286.884C389.073 286.884 388.587 284.508 388.587 283.23ZM405.174 281.682C405.048 280.026 404.112 278.208 401.61 278.208C398.478 278.208 397.056 280.566 397.056 283.5C397.056 286.254 398.64 288.27 401.304 288.27C404.094 288.27 405.012 286.146 405.174 284.634H403.626C403.356 286.092 402.438 286.884 401.358 286.884C399.162 286.884 398.766 284.868 398.766 283.23C398.766 281.538 399.396 279.648 401.376 279.648C402.726 279.648 403.428 280.404 403.626 281.682H405.174ZM410.966 279.648C413.27 279.648 413.432 282.096 413.432 283.662C413.432 286.2 411.92 286.884 410.912 286.884C409.166 286.884 408.356 285.282 408.356 283.212C408.356 281.97 408.482 279.648 410.966 279.648ZM406.754 291.762H408.356V286.884C408.806 287.658 409.652 288.27 410.93 288.27C414.17 288.27 415.07 285.228 415.07 282.96C415.07 280.26 413.648 278.208 411.128 278.208C409.472 278.208 408.77 279.054 408.248 279.828V278.478H406.754V291.762ZM423.287 285.012C423.287 285.714 422.333 286.884 420.839 286.884C419.003 286.884 418.085 285.732 418.085 283.77H425.015C425.015 280.404 423.665 278.208 420.929 278.208C417.779 278.208 416.375 280.53 416.375 283.5C416.375 286.254 417.941 288.27 420.605 288.27C423.539 288.27 424.529 286.488 424.889 285.012H423.287ZM418.085 282.492C418.085 281.016 419.237 279.648 420.695 279.648C422.657 279.648 423.287 281.016 423.377 282.492H418.085ZM427.962 278.478V281.574C427.962 283.356 427.782 285.012 426.9 286.668H425.838V290.79H427.296V288H434.226V290.79H435.684V286.668H434.622V278.478H427.962ZM433.02 286.668H428.556C429.294 285.102 429.51 283.572 429.51 281.538V279.81H433.02V286.668ZM436.66 283.23C436.66 285.678 438.028 288.27 441.07 288.27C444.112 288.27 445.48 285.678 445.48 283.23C445.48 280.782 444.112 278.208 441.07 278.208C438.028 278.208 436.66 280.782 436.66 283.23ZM438.298 283.23C438.298 281.952 438.784 279.594 441.07 279.594C443.356 279.594 443.842 281.952 443.842 283.23C443.842 284.508 443.356 286.884 441.07 286.884C438.784 286.884 438.298 284.508 438.298 283.23ZM446.227 278.478V279.81H449.359V288H450.961V279.81H454.093V278.478H446.227ZM454.976 283.23C454.976 285.678 456.344 288.27 459.386 288.27C462.428 288.27 463.796 285.678 463.796 283.23C463.796 280.782 462.428 278.208 459.386 278.208C456.344 278.208 454.976 280.782 454.976 283.23ZM456.614 283.23C456.614 281.952 457.1 279.594 459.386 279.594C461.672 279.594 462.158 281.952 462.158 283.23C462.158 284.508 461.672 286.884 459.386 286.884C457.1 286.884 456.614 284.508 456.614 283.23ZM465.285 278.478V281.628C465.285 283.59 466.725 284.112 468.147 284.112C469.209 284.112 470.199 283.986 471.153 283.752V288H472.755V278.478H471.153V282.42C470.415 282.654 469.335 282.744 468.633 282.744C467.679 282.744 466.887 282.438 466.887 281.394V278.478H465.285ZM476.7 278.478H475.098V288H476.772L481.434 280.872H481.47V288H483.072V278.478H481.398L476.736 285.606H476.7V278.478ZM484.354 278.478V279.81H487.486V288H489.088V279.81H492.22V278.478H484.354ZM495.227 278.478H493.625V288H497.531C500.105 288 501.113 286.722 501.113 285.246C501.113 283.572 499.925 282.312 497.495 282.312H495.227V278.478ZM495.227 283.644H497.513C498.809 283.644 499.475 284.166 499.475 285.156C499.475 286.218 498.971 286.668 497.513 286.668H495.227V283.644ZM510.52 281.682C510.394 280.026 509.458 278.208 506.956 278.208C503.824 278.208 502.402 280.566 502.402 283.5C502.402 286.254 503.986 288.27 506.65 288.27C509.44 288.27 510.358 286.146 510.52 284.634H508.972C508.702 286.092 507.784 286.884 506.704 286.884C504.508 286.884 504.112 284.868 504.112 283.23C504.112 281.538 504.742 279.648 506.722 279.648C508.072 279.648 508.774 280.404 508.972 281.682H510.52ZM519.174 278.478H515.124C512.982 278.478 511.686 279.45 511.686 281.25C511.686 282.87 512.946 283.752 513.828 283.932L511.47 288H513.288L515.538 283.986H517.572V288H519.174V278.478ZM517.572 282.726H515.07C513.9 282.726 513.288 282.258 513.288 281.268C513.288 280.314 513.9 279.81 515.07 279.81H517.572V282.726ZM528.168 278.478H526.566V288H528.168V283.644H532.614V288H534.216V278.478H532.614V282.312H528.168V278.478ZM537.973 281.376C538.063 280.656 538.315 279.54 540.133 279.54C541.645 279.54 542.347 280.026 542.347 281.07C542.347 282.06 542.167 282.258 539.665 282.456C536.317 282.708 536.029 284.382 536.029 285.516C536.029 287.172 537.253 288.27 538.999 288.27C540.853 288.27 541.807 287.388 542.437 286.722C542.509 287.442 542.707 288.18 544.129 288.18C544.489 288.18 544.723 288.072 544.993 288V286.83C544.813 286.866 544.615 286.902 544.471 286.902C544.147 286.902 543.949 286.704 543.949 286.308V280.872C543.949 278.424 541.177 278.208 540.421 278.208C538.063 278.208 536.497 279.09 536.497 281.376H537.973ZM542.347 284.706C542.347 285.984 540.907 286.938 539.413 286.938C538.225 286.938 537.667 286.308 537.667 285.264C537.667 284.058 538.927 283.842 539.719 283.734C541.699 283.482 542.095 283.338 542.347 283.14V284.706ZM559.282 281.682C559.156 280.026 558.22 278.208 555.718 278.208C552.586 278.208 551.164 280.566 551.164 283.5C551.164 286.254 552.748 288.27 555.412 288.27C558.202 288.27 559.12 286.146 559.282 284.634H557.734C557.464 286.092 556.546 286.884 555.466 286.884C553.27 286.884 552.874 284.868 552.874 283.23C552.874 281.538 553.504 279.648 555.484 279.648C556.834 279.648 557.536 280.404 557.734 281.682H559.282ZM562.463 279.81H564.821C566.225 279.81 566.693 280.224 566.693 280.98C566.693 282.024 566.171 282.42 564.785 282.42H562.463V279.81ZM562.463 283.68H565.163C566.459 283.68 567.251 284.166 567.251 285.192C567.251 286.254 566.567 286.668 565.325 286.668H562.463V283.68ZM560.861 288H565.361C567.629 288 568.853 286.992 568.853 285.48C568.853 283.842 567.701 283.194 566.693 282.96C567.521 282.726 568.295 282.042 568.295 280.908C568.295 279.594 567.287 278.478 565.181 278.478H560.861V288ZM570.148 283.23C570.148 285.678 571.516 288.27 574.558 288.27C577.6 288.27 578.968 285.678 578.968 283.23C578.968 280.782 577.6 278.208 574.558 278.208C571.516 278.208 570.148 280.782 570.148 283.23ZM571.786 283.23C571.786 281.952 572.272 279.594 574.558 279.594C576.844 279.594 577.33 281.952 577.33 283.23C577.33 284.508 576.844 286.884 574.558 286.884C572.272 286.884 571.786 284.508 571.786 283.23ZM582.379 278.478H580.777V288H582.451L587.113 280.872H587.149V288H588.751V278.478H587.077L582.415 285.606H582.379V278.478ZM595.488 283.104L598.692 278.478H596.73L594.534 281.826L592.338 278.478H590.286L593.454 283.104L590.124 288H592.14L594.426 284.418L596.784 288H598.818L595.488 283.104ZM606.813 278.478H605.211V288H606.813V284.4L608.163 283.14L611.241 288H613.149L609.297 282.024L612.933 278.478H610.899L606.813 282.618V278.478ZM615.587 278.478V283.608C615.587 286.398 615.245 286.794 614.345 286.794C614.075 286.794 613.823 286.776 613.697 286.758V288C613.949 288.072 614.291 288.144 614.723 288.144C616.235 288.144 617.189 287.028 617.189 284.148V279.81H620.951V288H622.553V278.478H615.587ZM626.501 278.478H624.899V288H626.501V283.644H628.391C628.553 285.966 629.741 288.252 632.603 288.252C635.645 288.252 636.833 285.678 636.833 283.23C636.833 280.782 635.645 278.208 632.603 278.208C629.921 278.208 628.679 280.134 628.391 282.312H626.501V278.478ZM630.029 283.23C630.029 281.952 630.317 279.594 632.603 279.594C634.781 279.594 635.177 281.952 635.177 283.23C635.177 284.508 634.889 286.866 632.603 286.866C630.317 286.866 630.029 284.508 630.029 283.23ZM638.465 278.478V281.628C638.465 283.59 639.905 284.112 641.327 284.112C642.389 284.112 643.379 283.986 644.333 283.752V288H645.935V278.478H644.333V282.42C643.595 282.654 642.515 282.744 641.813 282.744C640.859 282.744 640.067 282.438 640.067 281.394V278.478H638.465ZM654.667 285.012C654.667 285.714 653.713 286.884 652.219 286.884C650.383 286.884 649.465 285.732 649.465 283.77H656.395C656.395 280.404 655.045 278.208 652.309 278.208C649.159 278.208 647.755 280.53 647.755 283.5C647.755 286.254 649.321 288.27 651.985 288.27C654.919 288.27 655.909 286.488 656.269 285.012H654.667ZM649.465 282.492C649.465 281.016 650.617 279.648 652.075 279.648C654.037 279.648 654.667 281.016 654.757 282.492H649.465ZM659.811 279.81H662.169C663.573 279.81 664.041 280.224 664.041 280.98C664.041 282.024 663.519 282.42 662.133 282.42H659.811V279.81ZM659.811 283.68H662.511C663.807 283.68 664.599 284.166 664.599 285.192C664.599 286.254 663.915 286.668 662.673 286.668H659.811V283.68ZM658.209 288H662.709C664.977 288 666.201 286.992 666.201 285.48C666.201 283.842 665.049 283.194 664.041 282.96C664.869 282.726 665.643 282.042 665.643 280.908C665.643 279.594 664.635 278.478 662.529 278.478H658.209V288ZM678.746 278.478H677.144V288H678.746V278.478ZM669.62 278.478H668.018V288H671.924C674.498 288 675.506 286.722 675.506 285.246C675.506 283.572 674.318 282.312 671.888 282.312H669.62V278.478ZM669.62 283.644H671.906C673.202 283.644 673.868 284.166 673.868 285.156C673.868 286.218 673.364 286.668 671.906 286.668H669.62V283.644ZM685.47 283.104L688.674 278.478H686.712L684.516 281.826L682.32 278.478H680.268L683.436 283.104L680.106 288H682.122L684.408 284.418L686.766 288H688.8L685.47 283.104ZM696.345 281.196C696.561 280.098 697.191 279.594 698.541 279.594C699.441 279.594 700.485 279.936 700.485 280.98C700.485 281.934 700.035 282.456 698.649 282.456H697.785V283.716H698.739C699.909 283.716 700.791 284.184 700.791 285.3C700.791 286.416 699.747 286.884 698.577 286.884C696.921 286.884 696.237 286.344 696.093 285.012H694.527C694.707 286.704 695.499 288.27 698.649 288.27C700.737 288.27 702.447 287.28 702.447 285.516C702.447 283.914 701.331 283.32 700.485 283.032C701.277 282.816 702.141 282.168 702.141 280.926C702.141 279.414 700.701 278.208 698.541 278.208C695.877 278.208 694.959 279.972 694.815 281.196H696.345ZM705.686 281.376C705.776 280.656 706.028 279.54 707.846 279.54C709.358 279.54 710.06 280.026 710.06 281.07C710.06 282.06 709.88 282.258 707.378 282.456C704.03 282.708 703.742 284.382 703.742 285.516C703.742 287.172 704.966 288.27 706.712 288.27C708.566 288.27 709.52 287.388 710.15 286.722C710.222 287.442 710.42 288.18 711.842 288.18C712.202 288.18 712.436 288.072 712.706 288V286.83C712.526 286.866 712.328 286.902 712.184 286.902C711.86 286.902 711.662 286.704 711.662 286.308V280.872C711.662 278.424 708.89 278.208 708.134 278.208C705.776 278.208 704.21 279.09 704.21 281.376H705.686ZM710.06 284.706C710.06 285.984 708.62 286.938 707.126 286.938C705.938 286.938 705.38 286.308 705.38 285.264C705.38 284.058 706.64 283.842 707.432 283.734C709.412 283.482 709.808 283.338 710.06 283.14V284.706ZM715.488 278.478V281.574C715.488 283.356 715.308 285.012 714.426 286.668H713.364V290.79H714.822V288H721.752V290.79H723.21V286.668H722.148V278.478H715.488ZM720.546 286.668H716.082C716.82 285.102 717.036 283.572 717.036 281.538V279.81H720.546V286.668ZM726.129 281.376C726.219 280.656 726.471 279.54 728.289 279.54C729.801 279.54 730.503 280.026 730.503 281.07C730.503 282.06 730.323 282.258 727.821 282.456C724.473 282.708 724.185 284.382 724.185 285.516C724.185 287.172 725.409 288.27 727.155 288.27C729.009 288.27 729.963 287.388 730.593 286.722C730.665 287.442 730.863 288.18 732.285 288.18C732.645 288.18 732.879 288.072 733.149 288V286.83C732.969 286.866 732.771 286.902 732.627 286.902C732.303 286.902 732.105 286.704 732.105 286.308V280.872C732.105 278.424 729.333 278.208 728.577 278.208C726.219 278.208 724.653 279.09 724.653 281.376H726.129ZM730.503 284.706C730.503 285.984 729.063 286.938 727.569 286.938C726.381 286.938 725.823 286.308 725.823 285.264C725.823 284.058 727.083 283.842 727.875 283.734C729.855 283.482 730.251 283.338 730.503 283.14V284.706ZM733.808 278.478V281.628C733.808 283.59 735.248 284.112 736.67 284.112C737.732 284.112 738.722 283.986 739.676 283.752V288H741.278V278.478H739.676V282.42C738.938 282.654 737.858 282.744 737.156 282.744C736.202 282.744 735.41 282.438 735.41 281.394V278.478H733.808ZM745.043 281.376C745.133 280.656 745.385 279.54 747.203 279.54C748.715 279.54 749.417 280.026 749.417 281.07C749.417 282.06 749.237 282.258 746.735 282.456C743.387 282.708 743.099 284.382 743.099 285.516C743.099 287.172 744.323 288.27 746.069 288.27C747.923 288.27 748.877 287.388 749.507 286.722C749.579 287.442 749.777 288.18 751.199 288.18C751.559 288.18 751.793 288.072 752.063 288V286.83C751.883 286.866 751.685 286.902 751.541 286.902C751.217 286.902 751.019 286.704 751.019 286.308V280.872C751.019 278.424 748.247 278.208 747.491 278.208C745.133 278.208 743.567 279.09 743.567 281.376H745.043ZM749.417 284.706C749.417 285.984 747.977 286.938 746.483 286.938C745.295 286.938 744.737 286.308 744.737 285.264C744.737 284.058 745.997 283.842 746.789 283.734C748.769 283.482 749.165 283.338 749.417 283.14V284.706ZM758.103 283.104L761.307 278.478H759.345L757.149 281.826L754.953 278.478H752.901L756.069 283.104L752.739 288H754.755L757.041 284.418L759.399 288H761.433L758.103 283.104ZM763.177 288H764.149C764.149 288.846 763.951 289.764 763.177 289.836V290.664C763.555 290.61 765.085 290.322 765.085 287.856V286.074H763.177V288ZM143.17 310.478V320H144.772V311.81H149.218V320H150.82V310.478H143.17ZM159.544 317.012C159.544 317.714 158.59 318.884 157.096 318.884C155.26 318.884 154.342 317.732 154.342 315.77H161.272C161.272 312.404 159.922 310.208 157.186 310.208C154.036 310.208 152.632 312.53 152.632 315.5C152.632 318.254 154.198 320.27 156.862 320.27C159.796 320.27 160.786 318.488 161.146 317.012H159.544ZM154.342 314.492C154.342 313.016 155.494 311.648 156.952 311.648C158.914 311.648 159.544 313.016 159.634 314.492H154.342ZM167.298 311.648C169.602 311.648 169.764 314.096 169.764 315.662C169.764 318.2 168.252 318.884 167.244 318.884C165.498 318.884 164.688 317.282 164.688 315.212C164.688 313.97 164.814 311.648 167.298 311.648ZM163.086 323.762H164.688V318.884C165.138 319.658 165.984 320.27 167.262 320.27C170.502 320.27 171.402 317.228 171.402 314.96C171.402 312.26 169.98 310.208 167.46 310.208C165.804 310.208 165.102 311.054 164.58 311.828V310.478H163.086V323.762ZM179.619 317.012C179.619 317.714 178.665 318.884 177.171 318.884C175.335 318.884 174.417 317.732 174.417 315.77H181.347C181.347 312.404 179.997 310.208 177.261 310.208C174.111 310.208 172.707 312.53 172.707 315.5C172.707 318.254 174.273 320.27 176.937 320.27C179.871 320.27 180.861 318.488 181.221 317.012H179.619ZM174.417 314.492C174.417 313.016 175.569 311.648 177.027 311.648C178.989 311.648 179.619 313.016 179.709 314.492H174.417ZM184.294 310.478V313.574C184.294 315.356 184.114 317.012 183.232 318.668H182.17V322.79H183.628V320H190.558V322.79H192.016V318.668H190.954V310.478H184.294ZM189.352 318.668H184.888C185.626 317.102 185.842 315.572 185.842 313.538V311.81H189.352V318.668ZM194.936 313.376C195.026 312.656 195.278 311.54 197.096 311.54C198.608 311.54 199.31 312.026 199.31 313.07C199.31 314.06 199.13 314.258 196.628 314.456C193.28 314.708 192.992 316.382 192.992 317.516C192.992 319.172 194.216 320.27 195.962 320.27C197.816 320.27 198.77 319.388 199.4 318.722C199.472 319.442 199.67 320.18 201.092 320.18C201.452 320.18 201.686 320.072 201.956 320V318.83C201.776 318.866 201.578 318.902 201.434 318.902C201.11 318.902 200.912 318.704 200.912 318.308V312.872C200.912 310.424 198.14 310.208 197.384 310.208C195.026 310.208 193.46 311.09 193.46 313.376H194.936ZM199.31 316.706C199.31 317.984 197.87 318.938 196.376 318.938C195.188 318.938 194.63 318.308 194.63 317.264C194.63 316.058 195.89 315.842 196.682 315.734C198.662 315.482 199.058 315.338 199.31 315.14V316.706ZM205.206 311.81H207.564C208.968 311.81 209.436 312.224 209.436 312.98C209.436 314.024 208.914 314.42 207.528 314.42H205.206V311.81ZM205.206 315.68H207.906C209.202 315.68 209.994 316.166 209.994 317.192C209.994 318.254 209.31 318.668 208.068 318.668H205.206V315.68ZM203.604 320H208.104C210.372 320 211.596 318.992 211.596 317.48C211.596 315.842 210.444 315.194 209.436 314.96C210.264 314.726 211.038 314.042 211.038 312.908C211.038 311.594 210.03 310.478 207.924 310.478H203.604V320ZM225.567 318.992H225.603C226.035 319.658 226.737 320.27 227.997 320.27C230.535 320.27 231.615 318.11 231.615 315.086C231.615 312.35 230.211 310.208 228.087 310.208C226.647 310.208 225.945 311.054 225.567 311.594V306.932H224.037V311.576C223.641 311.036 222.903 310.208 221.463 310.208C219.339 310.208 217.989 312.368 217.989 315.104C217.989 318.128 219.015 320.27 221.553 320.27C222.813 320.27 223.641 319.55 224.037 318.884V323.762H225.567V318.992ZM229.959 315.266C229.959 317.678 229.167 318.884 227.691 318.884C226.809 318.884 225.567 318.272 225.567 315.536C225.567 313.394 225.999 311.594 227.691 311.594C229.203 311.594 229.959 313.376 229.959 315.266ZM219.645 315.284C219.645 313.394 220.275 311.594 221.823 311.594C223.479 311.594 224.037 313.448 224.037 315.59C224.037 318.326 222.687 318.884 221.823 318.884C220.329 318.884 219.645 317.696 219.645 315.284ZM232.444 310.478L235.972 320.252C235.198 322.214 235.09 322.448 234.28 322.448C233.848 322.448 233.506 322.358 233.308 322.286V323.744C233.56 323.816 233.758 323.888 233.992 323.888C235.828 323.888 236.242 323.366 236.944 321.728C238.258 318.668 240.022 313.592 241.138 310.478H239.374L236.836 318.236H236.8L234.262 310.478H232.444ZM244.106 310.478H242.504V320H244.106V315.644H248.552V320H250.154V310.478H248.552V314.312H244.106V310.478ZM254.09 310.478H252.488V320H254.09V316.4L255.44 315.14L258.518 320H260.426L256.574 314.024L260.21 310.478H258.176L254.09 314.618V310.478ZM263.249 310.478H261.647V320H268.919V322.79H270.359V318.668H269.315V310.478H267.713V318.668H263.249V310.478ZM273.549 310.478H271.947V320H273.621L278.283 312.872H278.319V320H279.921V310.478H278.247L273.585 317.606H273.549V310.478ZM283.868 310.478H282.266V320H283.94L288.602 312.872H288.638V320H290.24V310.478H288.566L283.904 317.606H283.868V310.478ZM296.657 310.478L300.185 320.252C299.411 322.214 299.303 322.448 298.493 322.448C298.061 322.448 297.719 322.358 297.521 322.286V323.744C297.773 323.816 297.971 323.888 298.205 323.888C300.041 323.888 300.455 323.366 301.157 321.728C302.471 318.668 304.235 313.592 305.351 310.478H303.587L301.049 318.236H301.013L298.475 310.478H296.657ZM306.717 310.478V320H308.319V311.81H312.765V320H314.367V310.478H306.717ZM320.913 311.648C323.217 311.648 323.379 314.096 323.379 315.662C323.379 318.2 321.867 318.884 320.859 318.884C319.113 318.884 318.303 317.282 318.303 315.212C318.303 313.97 318.429 311.648 320.913 311.648ZM316.701 323.762H318.303V318.884C318.753 319.658 319.599 320.27 320.877 320.27C324.117 320.27 325.017 317.228 325.017 314.96C325.017 312.26 323.595 310.208 321.075 310.208C319.419 310.208 318.717 311.054 318.195 311.828V310.478H316.701V323.762ZM328.266 313.376C328.356 312.656 328.608 311.54 330.426 311.54C331.938 311.54 332.64 312.026 332.64 313.07C332.64 314.06 332.46 314.258 329.958 314.456C326.61 314.708 326.322 316.382 326.322 317.516C326.322 319.172 327.546 320.27 329.292 320.27C331.146 320.27 332.1 319.388 332.73 318.722C332.802 319.442 333 320.18 334.422 320.18C334.782 320.18 335.016 320.072 335.286 320V318.83C335.106 318.866 334.908 318.902 334.764 318.902C334.44 318.902 334.242 318.704 334.242 318.308V312.872C334.242 310.424 331.47 310.208 330.714 310.208C328.356 310.208 326.79 311.09 326.79 313.376H328.266ZM332.64 316.706C332.64 317.984 331.2 318.938 329.706 318.938C328.518 318.938 327.96 318.308 327.96 317.264C327.96 316.058 329.22 315.842 330.012 315.734C331.992 315.482 332.388 315.338 332.64 315.14V316.706ZM338.536 311.81H340.894C342.298 311.81 342.766 312.224 342.766 312.98C342.766 314.024 342.244 314.42 340.858 314.42H338.536V311.81ZM338.536 315.68H341.236C342.532 315.68 343.324 316.166 343.324 317.192C343.324 318.254 342.64 318.668 341.398 318.668H338.536V315.68ZM336.934 320H341.434C343.702 320 344.926 318.992 344.926 317.48C344.926 315.842 343.774 315.194 342.766 314.96C343.594 314.726 344.368 314.042 344.368 312.908C344.368 311.594 343.36 310.478 341.254 310.478H336.934V320ZM347.696 310.478V315.608C347.696 318.398 347.354 318.794 346.454 318.794C346.184 318.794 345.932 318.776 345.806 318.758V320C346.058 320.072 346.4 320.144 346.832 320.144C348.344 320.144 349.298 319.028 349.298 316.148V311.81H353.06V320H354.662V310.478H347.696ZM363.398 317.012C363.398 317.714 362.444 318.884 360.95 318.884C359.114 318.884 358.196 317.732 358.196 315.77H365.126C365.126 312.404 363.776 310.208 361.04 310.208C357.89 310.208 356.486 312.53 356.486 315.5C356.486 318.254 358.052 320.27 360.716 320.27C363.65 320.27 364.64 318.488 365 317.012H363.398ZM358.196 314.492C358.196 313.016 359.348 311.648 360.806 311.648C362.768 311.648 363.398 313.016 363.488 314.492H358.196ZM368.542 310.478H366.94V320H368.542V315.644H372.988V320H374.59V310.478H372.988V314.312H368.542V310.478ZM378.526 310.478H376.924V320H378.598L383.26 312.872H383.296V320H384.898V310.478H383.224L378.562 317.606H378.526V310.478ZM394.316 310.478H390.266C388.124 310.478 386.828 311.45 386.828 313.25C386.828 314.87 388.088 315.752 388.97 315.932L386.612 320H388.43L390.68 315.986H392.714V320H394.316V310.478ZM392.714 314.726H390.212C389.042 314.726 388.43 314.258 388.43 313.268C388.43 312.314 389.042 311.81 390.212 311.81H392.714V314.726ZM401.709 310.478V320H403.311V311.81H407.757V320H409.359V310.478H401.709ZM418.083 317.012C418.083 317.714 417.129 318.884 415.635 318.884C413.799 318.884 412.881 317.732 412.881 315.77H419.811C419.811 312.404 418.461 310.208 415.725 310.208C412.575 310.208 411.171 312.53 411.171 315.5C411.171 318.254 412.737 320.27 415.401 320.27C418.335 320.27 419.325 318.488 419.685 317.012H418.083ZM412.881 314.492C412.881 313.016 414.033 311.648 415.491 311.648C417.453 311.648 418.083 313.016 418.173 314.492H412.881ZM425.837 311.648C428.141 311.648 428.303 314.096 428.303 315.662C428.303 318.2 426.791 318.884 425.783 318.884C424.037 318.884 423.227 317.282 423.227 315.212C423.227 313.97 423.353 311.648 425.837 311.648ZM421.625 323.762H423.227V318.884C423.677 319.658 424.523 320.27 425.801 320.27C429.041 320.27 429.941 317.228 429.941 314.96C429.941 312.26 428.519 310.208 425.999 310.208C424.343 310.208 423.641 311.054 423.119 311.828V310.478H421.625V323.762ZM439.364 313.682C439.238 312.026 438.302 310.208 435.8 310.208C432.668 310.208 431.246 312.566 431.246 315.5C431.246 318.254 432.83 320.27 435.494 320.27C438.284 320.27 439.202 318.146 439.364 316.634H437.816C437.546 318.092 436.628 318.884 435.548 318.884C433.352 318.884 432.956 316.868 432.956 315.23C432.956 313.538 433.586 311.648 435.566 311.648C436.916 311.648 437.618 312.404 437.816 313.682H439.364ZM440.421 315.23C440.421 317.678 441.789 320.27 444.831 320.27C447.873 320.27 449.241 317.678 449.241 315.23C449.241 312.782 447.873 310.208 444.831 310.208C441.789 310.208 440.421 312.782 440.421 315.23ZM442.059 315.23C442.059 313.952 442.545 311.594 444.831 311.594C447.117 311.594 447.603 313.952 447.603 315.23C447.603 316.508 447.117 318.884 444.831 318.884C442.545 318.884 442.059 316.508 442.059 315.23ZM452.653 310.478H451.051V320H452.653V315.644H457.099V320H458.701V310.478H457.099V314.312H452.653V310.478ZM462.457 313.376C462.547 312.656 462.799 311.54 464.617 311.54C466.129 311.54 466.831 312.026 466.831 313.07C466.831 314.06 466.651 314.258 464.149 314.456C460.801 314.708 460.513 316.382 460.513 317.516C460.513 319.172 461.737 320.27 463.483 320.27C465.337 320.27 466.291 319.388 466.921 318.722C466.993 319.442 467.191 320.18 468.613 320.18C468.973 320.18 469.207 320.072 469.477 320V318.83C469.297 318.866 469.099 318.902 468.955 318.902C468.631 318.902 468.433 318.704 468.433 318.308V312.872C468.433 310.424 465.661 310.208 464.905 310.208C462.547 310.208 460.981 311.09 460.981 313.376H462.457ZM466.831 316.706C466.831 317.984 465.391 318.938 463.897 318.938C462.709 318.938 462.151 318.308 462.151 317.264C462.151 316.058 463.411 315.842 464.203 315.734C466.183 315.482 466.579 315.338 466.831 315.14V316.706ZM472.079 310.478V315.608C472.079 318.398 471.737 318.794 470.837 318.794C470.567 318.794 470.315 318.776 470.189 318.758V320C470.441 320.072 470.783 320.144 471.215 320.144C472.727 320.144 473.681 319.028 473.681 316.148V311.81H477.443V320H479.045V310.478H472.079ZM480.869 315.23C480.869 317.678 482.237 320.27 485.279 320.27C488.321 320.27 489.689 317.678 489.689 315.23C489.689 312.782 488.321 310.208 485.279 310.208C482.237 310.208 480.869 312.782 480.869 315.23ZM482.507 315.23C482.507 313.952 482.993 311.594 485.279 311.594C487.565 311.594 488.051 313.952 488.051 315.23C488.051 316.508 487.565 318.884 485.279 318.884C482.993 318.884 482.507 316.508 482.507 315.23ZM491.498 310.478V320H493.064V314.474C493.064 313.466 492.974 312.422 492.974 312.422H493.1L496.088 320H497.24L500.228 312.422H500.354C500.354 312.422 500.264 313.466 500.264 314.474V320H501.83V310.478H499.616L496.682 317.948L493.748 310.478H491.498ZM504.568 320H505.54C505.54 320.846 505.342 321.764 504.568 321.836V322.664C504.946 322.61 506.476 322.322 506.476 319.856V318.074H504.568V320ZM515.864 310.478H514.262V320H515.864V316.4L517.214 315.14L520.292 320H522.2L518.348 314.024L521.984 310.478H519.95L515.864 314.618V310.478ZM524.842 313.376C524.932 312.656 525.184 311.54 527.002 311.54C528.514 311.54 529.216 312.026 529.216 313.07C529.216 314.06 529.036 314.258 526.534 314.456C523.186 314.708 522.898 316.382 522.898 317.516C522.898 319.172 524.122 320.27 525.868 320.27C527.722 320.27 528.676 319.388 529.306 318.722C529.378 319.442 529.576 320.18 530.998 320.18C531.358 320.18 531.592 320.072 531.862 320V318.83C531.682 318.866 531.484 318.902 531.34 318.902C531.016 318.902 530.818 318.704 530.818 318.308V312.872C530.818 310.424 528.046 310.208 527.29 310.208C524.932 310.208 523.366 311.09 523.366 313.376H524.842ZM529.216 316.706C529.216 317.984 527.776 318.938 526.282 318.938C525.094 318.938 524.536 318.308 524.536 317.264C524.536 316.058 525.796 315.842 526.588 315.734C528.568 315.482 528.964 315.338 529.216 315.14V316.706ZM534.662 313.196C534.878 312.098 535.508 311.594 536.858 311.594C537.758 311.594 538.802 311.936 538.802 312.98C538.802 313.934 538.352 314.456 536.966 314.456H536.102V315.716H537.056C538.226 315.716 539.108 316.184 539.108 317.3C539.108 318.416 538.064 318.884 536.894 318.884C535.238 318.884 534.554 318.344 534.41 317.012H532.844C533.024 318.704 533.816 320.27 536.966 320.27C539.054 320.27 540.764 319.28 540.764 317.516C540.764 315.914 539.648 315.32 538.802 315.032C539.594 314.816 540.458 314.168 540.458 312.926C540.458 311.414 539.018 310.208 536.858 310.208C534.194 310.208 533.276 311.972 533.132 313.196H534.662ZM544.182 310.478H542.58V320H544.182V315.644H548.628V320H550.23V310.478H548.628V314.312H544.182V310.478ZM553.987 313.376C554.077 312.656 554.329 311.54 556.147 311.54C557.659 311.54 558.361 312.026 558.361 313.07C558.361 314.06 558.181 314.258 555.679 314.456C552.331 314.708 552.043 316.382 552.043 317.516C552.043 319.172 553.267 320.27 555.013 320.27C556.867 320.27 557.821 319.388 558.451 318.722C558.523 319.442 558.721 320.18 560.143 320.18C560.503 320.18 560.737 320.072 561.007 320V318.83C560.827 318.866 560.629 318.902 560.485 318.902C560.161 318.902 559.963 318.704 559.963 318.308V312.872C559.963 310.424 557.191 310.208 556.435 310.208C554.077 310.208 552.511 311.09 552.511 313.376H553.987ZM558.361 316.706C558.361 317.984 556.921 318.938 555.427 318.938C554.239 318.938 553.681 318.308 553.681 317.264C553.681 316.058 554.941 315.842 555.733 315.734C557.713 315.482 558.109 315.338 558.361 315.14V316.706ZM561.666 310.478V313.628C561.666 315.59 563.106 316.112 564.528 316.112C565.59 316.112 566.58 315.986 567.534 315.752V320H569.136V310.478H567.534V314.42C566.796 314.654 565.716 314.744 565.014 314.744C564.06 314.744 563.268 314.438 563.268 313.394V310.478H561.666ZM577.869 317.012C577.869 317.714 576.915 318.884 575.421 318.884C573.585 318.884 572.667 317.732 572.667 315.77H579.597C579.597 312.404 578.247 310.208 575.511 310.208C572.361 310.208 570.957 312.53 570.957 315.5C570.957 318.254 572.523 320.27 575.187 320.27C578.121 320.27 579.111 318.488 579.471 317.012H577.869ZM572.667 314.492C572.667 313.016 573.819 311.648 575.277 311.648C577.239 311.648 577.869 313.016 577.959 314.492H572.667ZM583.012 310.478H581.41V320H583.084L587.746 312.872H587.782V320H589.384V310.478H587.71L583.048 317.606H583.012V310.478ZM583.696 306.932H582.796C582.796 307.616 583.12 309.416 585.586 309.416C587.98 309.416 588.286 307.58 588.286 306.932H587.404C587.152 307.688 586.792 308.372 585.55 308.372C584.29 308.372 583.84 307.742 583.696 306.932ZM599.325 313.682C599.199 312.026 598.263 310.208 595.761 310.208C592.629 310.208 591.207 312.566 591.207 315.5C591.207 318.254 592.791 320.27 595.455 320.27C598.245 320.27 599.163 318.146 599.325 316.634H597.777C597.507 318.092 596.589 318.884 595.509 318.884C593.313 318.884 592.917 316.868 592.917 315.23C592.917 313.538 593.547 311.648 595.527 311.648C596.877 311.648 597.579 312.404 597.777 313.682H599.325ZM600.106 310.478V311.81H603.238V320H604.84V311.81H607.972V310.478H600.106ZM610.979 311.81H613.337C614.741 311.81 615.209 312.224 615.209 312.98C615.209 314.024 614.687 314.42 613.301 314.42H610.979V311.81ZM610.979 315.68H613.679C614.975 315.68 615.767 316.166 615.767 317.192C615.767 318.254 615.083 318.668 613.841 318.668H610.979V315.68ZM609.377 320H613.877C616.145 320 617.369 318.992 617.369 317.48C617.369 315.842 616.217 315.194 615.209 314.96C616.037 314.726 616.811 314.042 616.811 312.908C616.811 311.594 615.803 310.478 613.697 310.478H609.377V320ZM620.608 313.376C620.698 312.656 620.95 311.54 622.768 311.54C624.28 311.54 624.982 312.026 624.982 313.07C624.982 314.06 624.802 314.258 622.3 314.456C618.952 314.708 618.664 316.382 618.664 317.516C618.664 319.172 619.888 320.27 621.634 320.27C623.488 320.27 624.442 319.388 625.072 318.722C625.144 319.442 625.342 320.18 626.764 320.18C627.124 320.18 627.358 320.072 627.628 320V318.83C627.448 318.866 627.25 318.902 627.106 318.902C626.782 318.902 626.584 318.704 626.584 318.308V312.872C626.584 310.424 623.812 310.208 623.056 310.208C620.698 310.208 619.132 311.09 619.132 313.376H620.608ZM624.982 316.706C624.982 317.984 623.542 318.938 622.048 318.938C620.86 318.938 620.302 318.308 620.302 317.264C620.302 316.058 621.562 315.842 622.354 315.734C624.334 315.482 624.73 315.338 624.982 315.14V316.706ZM629.671 320H630.643C630.643 320.846 630.445 321.764 629.671 321.836V322.664C630.049 322.61 631.579 322.322 631.579 319.856V318.074H629.671V320ZM646.475 318.992H646.511C646.943 319.658 647.645 320.27 648.905 320.27C651.443 320.27 652.523 318.11 652.523 315.086C652.523 312.35 651.119 310.208 648.995 310.208C647.555 310.208 646.853 311.054 646.475 311.594V306.932H644.945V311.576C644.549 311.036 643.811 310.208 642.371 310.208C640.247 310.208 638.897 312.368 638.897 315.104C638.897 318.128 639.923 320.27 642.461 320.27C643.721 320.27 644.549 319.55 644.945 318.884V323.762H646.475V318.992ZM650.867 315.266C650.867 317.678 650.075 318.884 648.599 318.884C647.717 318.884 646.475 318.272 646.475 315.536C646.475 313.394 646.907 311.594 648.599 311.594C650.111 311.594 650.867 313.376 650.867 315.266ZM640.553 315.284C640.553 313.394 641.183 311.594 642.731 311.594C644.387 311.594 644.945 313.448 644.945 315.59C644.945 318.326 643.595 318.884 642.731 318.884C641.237 318.884 640.553 317.696 640.553 315.284ZM655.926 310.478H654.324V320H655.998L660.66 312.872H660.696V320H662.298V310.478H660.624L655.962 317.606H655.926V310.478ZM666.245 310.478H664.643V320H666.245V315.644H670.691V320H672.293V310.478H670.691V314.312H666.245V310.478ZM676.049 313.376C676.139 312.656 676.391 311.54 678.209 311.54C679.721 311.54 680.423 312.026 680.423 313.07C680.423 314.06 680.243 314.258 677.741 314.456C674.393 314.708 674.105 316.382 674.105 317.516C674.105 319.172 675.329 320.27 677.075 320.27C678.929 320.27 679.883 319.388 680.513 318.722C680.585 319.442 680.783 320.18 682.205 320.18C682.565 320.18 682.799 320.072 683.069 320V318.83C682.889 318.866 682.691 318.902 682.547 318.902C682.223 318.902 682.025 318.704 682.025 318.308V312.872C682.025 310.424 679.253 310.208 678.497 310.208C676.139 310.208 674.573 311.09 674.573 313.376H676.049ZM680.423 316.706C680.423 317.984 678.983 318.938 677.489 318.938C676.301 318.938 675.743 318.308 675.743 317.264C675.743 316.058 677.003 315.842 677.795 315.734C679.775 315.482 680.171 315.338 680.423 315.14V316.706ZM686.319 310.478H684.717V320H686.319V315.644H690.765V320H692.367V310.478H690.765V314.312H686.319V310.478ZM702.297 313.682C702.171 312.026 701.235 310.208 698.733 310.208C695.601 310.208 694.179 312.566 694.179 315.5C694.179 318.254 695.763 320.27 698.427 320.27C701.217 320.27 702.135 318.146 702.297 316.634H700.749C700.479 318.092 699.561 318.884 698.481 318.884C696.285 318.884 695.889 316.868 695.889 315.23C695.889 313.538 696.519 311.648 698.499 311.648C699.849 311.648 700.551 312.404 700.749 313.682H702.297ZM703.355 315.23C703.355 317.678 704.723 320.27 707.765 320.27C710.807 320.27 712.175 317.678 712.175 315.23C712.175 312.782 710.807 310.208 707.765 310.208C704.723 310.208 703.355 312.782 703.355 315.23ZM704.993 315.23C704.993 313.952 705.479 311.594 707.765 311.594C710.051 311.594 710.537 313.952 710.537 315.23C710.537 316.508 710.051 318.884 707.765 318.884C705.479 318.884 704.993 316.508 704.993 315.23ZM715.586 311.81H717.944C719.348 311.81 719.816 312.224 719.816 312.98C719.816 314.024 719.294 314.42 717.908 314.42H715.586V311.81ZM715.586 315.68H718.286C719.582 315.68 720.374 316.166 720.374 317.192C720.374 318.254 719.69 318.668 718.448 318.668H715.586V315.68ZM713.984 320H718.484C720.752 320 721.976 318.992 721.976 317.48C721.976 315.842 720.824 315.194 719.816 314.96C720.644 314.726 721.418 314.042 721.418 312.908C721.418 311.594 720.41 310.478 718.304 310.478H713.984V320ZM723.271 315.23C723.271 317.678 724.639 320.27 727.681 320.27C730.723 320.27 732.091 317.678 732.091 315.23C732.091 312.782 730.723 310.208 727.681 310.208C724.639 310.208 723.271 312.782 723.271 315.23ZM724.909 315.23C724.909 313.952 725.395 311.594 727.681 311.594C729.967 311.594 730.453 313.952 730.453 315.23C730.453 316.508 729.967 318.884 727.681 318.884C725.395 318.884 724.909 316.508 724.909 315.23ZM733.9 310.478V320H735.502V311.81H740.092V310.478H733.9ZM740.919 315.23C740.919 317.678 742.287 320.27 745.329 320.27C748.371 320.27 749.739 317.678 749.739 315.23C749.739 312.782 748.371 310.208 745.329 310.208C742.287 310.208 740.919 312.782 740.919 315.23ZM742.557 315.23C742.557 313.952 743.043 311.594 745.329 311.594C747.615 311.594 748.101 313.952 748.101 315.23C748.101 316.508 747.615 318.884 745.329 318.884C743.043 318.884 742.557 316.508 742.557 315.23ZM142.198 342.478L145.726 352.252C144.952 354.214 144.844 354.448 144.034 354.448C143.602 354.448 143.26 354.358 143.062 354.286V355.744C143.314 355.816 143.512 355.888 143.746 355.888C145.582 355.888 145.996 355.366 146.698 353.728C148.012 350.668 149.776 345.592 150.892 342.478H149.128L146.59 350.236H146.554L144.016 342.478H142.198ZM152.078 342.478V345.628C152.078 347.59 153.518 348.112 154.94 348.112C156.002 348.112 156.992 347.986 157.946 347.752V352H159.548V342.478H157.946V346.42C157.208 346.654 156.128 346.744 155.426 346.744C154.472 346.744 153.68 346.438 153.68 345.394V342.478H152.078ZM168.281 349.012C168.281 349.714 167.327 350.884 165.833 350.884C163.997 350.884 163.079 349.732 163.079 347.77H170.009C170.009 344.404 168.659 342.208 165.923 342.208C162.773 342.208 161.369 344.53 161.369 347.5C161.369 350.254 162.935 352.27 165.599 352.27C168.533 352.27 169.523 350.488 169.883 349.012H168.281ZM163.079 346.492C163.079 345.016 164.231 343.648 165.689 343.648C167.651 343.648 168.281 345.016 168.371 346.492H163.079ZM165.005 340.75V338.932H163.403V340.75H165.005ZM168.281 340.75V338.932H166.679V340.75H168.281ZM170.76 342.478V343.81H173.892V352H175.494V343.81H178.626V342.478H170.76ZM181.453 345.376C181.543 344.656 181.795 343.54 183.613 343.54C185.125 343.54 185.827 344.026 185.827 345.07C185.827 346.06 185.647 346.258 183.145 346.456C179.797 346.708 179.509 348.382 179.509 349.516C179.509 351.172 180.733 352.27 182.479 352.27C184.333 352.27 185.287 351.388 185.917 350.722C185.989 351.442 186.187 352.18 187.609 352.18C187.969 352.18 188.203 352.072 188.473 352V350.83C188.293 350.866 188.095 350.902 187.951 350.902C187.627 350.902 187.429 350.704 187.429 350.308V344.872C187.429 342.424 184.657 342.208 183.901 342.208C181.543 342.208 179.977 343.09 179.977 345.376H181.453ZM185.827 348.706C185.827 349.984 184.387 350.938 182.893 350.938C181.705 350.938 181.147 350.308 181.147 349.264C181.147 348.058 182.407 347.842 183.199 347.734C185.179 347.482 185.575 347.338 185.827 347.14V348.706ZM196.768 342.478H195.166V352H196.84L201.502 344.872H201.538V352H203.14V342.478H201.466L196.804 349.606H196.768V342.478ZM210.007 347.23C210.007 349.678 211.375 352.27 214.417 352.27C217.459 352.27 218.827 349.678 218.827 347.23C218.827 344.782 217.459 342.208 214.417 342.208C211.375 342.208 210.007 344.782 210.007 347.23ZM211.645 347.23C211.645 345.952 212.131 343.594 214.417 343.594C216.703 343.594 217.189 345.952 217.189 347.23C217.189 348.508 216.703 350.884 214.417 350.884C212.131 350.884 211.645 348.508 211.645 347.23ZM219.575 342.478V343.81H222.707V352H224.309V343.81H227.441V342.478H219.575ZM228.666 342.478V345.628C228.666 347.59 230.106 348.112 231.528 348.112C232.59 348.112 233.58 347.986 234.534 347.752V352H236.136V342.478H234.534V346.42C233.796 346.654 232.716 346.744 232.014 346.744C231.06 346.744 230.268 346.438 230.268 345.394V342.478H228.666ZM244.869 349.012C244.869 349.714 243.915 350.884 242.421 350.884C240.585 350.884 239.667 349.732 239.667 347.77H246.597C246.597 344.404 245.247 342.208 242.511 342.208C239.361 342.208 237.957 344.53 237.957 347.5C237.957 350.254 239.523 352.27 242.187 352.27C245.121 352.27 246.111 350.488 246.471 349.012H244.869ZM239.667 346.492C239.667 345.016 240.819 343.648 242.277 343.648C244.239 343.648 244.869 345.016 244.959 346.492H239.667ZM241.593 340.75V338.932H239.991V340.75H241.593ZM244.869 340.75V338.932H243.267V340.75H244.869ZM247.348 342.478V343.81H250.48V352H252.082V343.81H255.214V342.478H247.348ZM258.221 342.478H256.619V352H258.221V347.644H262.667V352H264.269V342.478H262.667V346.312H258.221V342.478ZM266.082 347.23C266.082 349.678 267.45 352.27 270.492 352.27C273.534 352.27 274.902 349.678 274.902 347.23C274.902 344.782 273.534 342.208 270.492 342.208C267.45 342.208 266.082 344.782 266.082 347.23ZM267.72 347.23C267.72 345.952 268.206 343.594 270.492 343.594C272.778 343.594 273.264 345.952 273.264 347.23C273.264 348.508 272.778 350.884 270.492 350.884C268.206 350.884 267.72 348.508 267.72 347.23ZM284.307 345.682C284.181 344.026 283.245 342.208 280.743 342.208C277.611 342.208 276.189 344.566 276.189 347.5C276.189 350.254 277.773 352.27 280.437 352.27C283.227 352.27 284.145 350.146 284.307 348.634H282.759C282.489 350.092 281.571 350.884 280.491 350.884C278.295 350.884 277.899 348.868 277.899 347.23C277.899 345.538 278.529 343.648 280.509 343.648C281.859 343.648 282.561 344.404 282.759 345.682H284.307ZM285.088 342.478V343.81H288.22V352H289.822V343.81H292.954V342.478H285.088ZM295.961 342.478H294.359V352H296.033L300.695 344.872H300.731V352H302.333V342.478H300.659L295.997 349.606H295.961V342.478ZM311.325 342.478H309.723V352H311.325V347.644H315.771V352H317.373V342.478H315.771V346.312H311.325V342.478ZM321.129 345.376C321.219 344.656 321.471 343.54 323.289 343.54C324.801 343.54 325.503 344.026 325.503 345.07C325.503 346.06 325.323 346.258 322.821 346.456C319.473 346.708 319.185 348.382 319.185 349.516C319.185 351.172 320.409 352.27 322.155 352.27C324.009 352.27 324.963 351.388 325.593 350.722C325.665 351.442 325.863 352.18 327.285 352.18C327.645 352.18 327.879 352.072 328.149 352V350.83C327.969 350.866 327.771 350.902 327.627 350.902C327.303 350.902 327.105 350.704 327.105 350.308V344.872C327.105 342.424 324.333 342.208 323.577 342.208C321.219 342.208 319.653 343.09 319.653 345.376H321.129ZM325.503 348.706C325.503 349.984 324.063 350.938 322.569 350.938C321.381 350.938 320.823 350.308 320.823 349.264C320.823 348.058 322.083 347.842 322.875 347.734C324.855 347.482 325.251 347.338 325.503 347.14V348.706ZM329.797 342.478V352H331.363V346.474C331.363 345.466 331.273 344.422 331.273 344.422H331.399L334.387 352H335.539L338.527 344.422H338.653C338.653 344.422 338.563 345.466 338.563 346.474V352H340.129V342.478H337.915L334.981 349.948L332.047 342.478H329.797ZM344.775 350.074H342.867V352H344.775V350.074Z" fill="#242627"/>
<path d="M163.96 141.868H148.192V132.796H162.484V129.664H148.192V121.996H163.708V118.864H144.664V145H163.96V141.868ZM171.345 128.62H176.061C178.869 128.62 179.805 129.448 179.805 130.96C179.805 133.048 178.761 133.84 175.989 133.84H171.345V128.62ZM171.345 136.36H176.745C179.337 136.36 180.921 137.332 180.921 139.384C180.921 141.508 179.553 142.336 177.069 142.336H171.345V136.36ZM168.141 145H177.141C181.677 145 184.125 142.984 184.125 139.96C184.125 136.684 181.821 135.388 179.805 134.92C181.461 134.452 183.009 133.084 183.009 130.816C183.009 128.188 180.993 125.956 176.781 125.956H168.141V145ZM190.026 125.956V132.148C190.026 135.712 189.666 139.024 187.902 142.336H185.778V150.58H188.694V145H202.554V150.58H205.47V142.336H203.346V125.956H190.026ZM200.142 142.336H191.214C192.69 139.204 193.122 136.144 193.122 132.076V128.62H200.142V142.336ZM207.421 135.46C207.421 140.356 210.157 145.54 216.241 145.54C222.325 145.54 225.061 140.356 225.061 135.46C225.061 130.564 222.325 125.416 216.241 125.416C210.157 125.416 207.421 130.564 207.421 135.46ZM210.697 135.46C210.697 132.904 211.669 128.188 216.241 128.188C220.813 128.188 221.785 132.904 221.785 135.46C221.785 138.016 220.813 142.768 216.241 142.768C211.669 142.768 210.697 138.016 210.697 135.46ZM231.884 125.956H228.68V145H231.884V137.8L234.584 135.28L240.74 145H244.556L236.852 133.048L244.124 125.956H240.056L231.884 134.236V125.956ZM250.2 125.956H246.996V145H250.344L259.668 130.744H259.74V145H262.944V125.956H259.596L250.272 140.212H250.2V125.956ZM267.633 125.956V145H270.765V133.948C270.765 131.932 270.585 129.844 270.585 129.844H270.837L276.813 145H279.117L285.093 129.844H285.345C285.345 129.844 285.165 131.932 285.165 133.948V145H288.297V125.956H283.869L278.001 140.896L272.133 125.956H267.633ZM291.937 135.46C291.937 140.356 294.673 145.54 300.757 145.54C306.841 145.54 309.577 140.356 309.577 135.46C309.577 130.564 306.841 125.416 300.757 125.416C294.673 125.416 291.937 130.564 291.937 135.46ZM295.213 135.46C295.213 132.904 296.185 128.188 300.757 128.188C305.329 128.188 306.301 132.904 306.301 135.46C306.301 138.016 305.329 142.768 300.757 142.768C296.185 142.768 295.213 138.016 295.213 135.46ZM316.399 128.62H321.115C323.923 128.62 324.859 129.448 324.859 130.96C324.859 133.048 323.815 133.84 321.043 133.84H316.399V128.62ZM316.399 136.36H321.799C324.391 136.36 325.975 137.332 325.975 139.384C325.975 141.508 324.607 142.336 322.123 142.336H316.399V136.36ZM313.195 145H322.195C326.731 145 329.179 142.984 329.179 139.96C329.179 136.684 326.875 135.388 324.859 134.92C326.515 134.452 328.063 133.084 328.063 130.816C328.063 128.188 326.047 125.956 321.835 125.956H313.195V145ZM335.657 131.752C335.837 130.312 336.341 128.08 339.977 128.08C343.001 128.08 344.405 129.052 344.405 131.14C344.405 133.12 344.045 133.516 339.041 133.912C332.345 134.416 331.769 137.764 331.769 140.032C331.769 143.344 334.217 145.54 337.709 145.54C341.417 145.54 343.325 143.776 344.585 142.444C344.729 143.884 345.125 145.36 347.969 145.36C348.689 145.36 349.157 145.144 349.697 145V142.66C349.337 142.732 348.941 142.804 348.653 142.804C348.005 142.804 347.609 142.408 347.609 141.616V130.744C347.609 125.848 342.065 125.416 340.553 125.416C335.837 125.416 332.705 127.18 332.705 131.752H335.657ZM344.405 138.412C344.405 140.968 341.525 142.876 338.537 142.876C336.161 142.876 335.045 141.616 335.045 139.528C335.045 137.116 337.565 136.684 339.149 136.468C343.109 135.964 343.901 135.676 344.405 135.28V138.412ZM363.406 118.864V145H366.826V129.556C366.826 128.8 366.718 125.416 366.718 123.04H366.826L374.17 145H377.662L385.042 123.04H385.078C385.078 125.452 384.97 128.8 384.97 129.556V145H388.39V118.864H383.386L375.934 140.968H375.862L368.446 118.864H363.406ZM396.231 131.752C396.411 130.312 396.915 128.08 400.551 128.08C403.575 128.08 404.979 129.052 404.979 131.14C404.979 133.12 404.619 133.516 399.615 133.912C392.919 134.416 392.343 137.764 392.343 140.032C392.343 143.344 394.791 145.54 398.283 145.54C401.991 145.54 403.899 143.776 405.159 142.444C405.303 143.884 405.699 145.36 408.543 145.36C409.263 145.36 409.731 145.144 410.271 145V142.66C409.911 142.732 409.515 142.804 409.227 142.804C408.579 142.804 408.183 142.408 408.183 141.616V130.744C408.183 125.848 402.639 125.416 401.127 125.416C396.411 125.416 393.279 127.18 393.279 131.752H396.231ZM404.979 138.412C404.979 140.968 402.099 142.876 399.111 142.876C396.735 142.876 395.619 141.616 395.619 139.528C395.619 137.116 398.139 136.684 399.723 136.468C403.683 135.964 404.475 135.676 404.979 135.28V138.412ZM416.771 125.956H413.567V145H416.915L426.239 130.744H426.311V145H429.515V125.956H426.167L416.843 140.212H416.771V125.956ZM418.139 118.864H416.339C416.339 120.232 416.987 123.832 421.919 123.832C426.707 123.832 427.319 120.16 427.319 118.864H425.555C425.051 120.376 424.331 121.744 421.847 121.744C419.327 121.744 418.427 120.484 418.139 118.864ZM448.351 125.956H440.251C435.967 125.956 433.375 127.9 433.375 131.5C433.375 134.74 435.895 136.504 437.659 136.864L432.943 145H436.579L441.079 136.972H445.147V145H448.351V125.956ZM445.147 134.452H440.143C437.803 134.452 436.579 133.516 436.579 131.536C436.579 129.628 437.803 128.62 440.143 128.62H445.147V134.452Z" fill="#242627"/>
<path d="M143.223 173.384V185H144.791V174.776H150.823V173.384H143.223ZM156.743 182.344C156.743 182.968 155.895 184.008 154.567 184.008C152.935 184.008 152.119 182.984 152.119 181.24H158.279C158.279 178.248 157.079 176.296 154.647 176.296C151.847 176.296 150.599 178.36 150.599 181C150.599 183.448 151.991 185.24 154.359 185.24C156.967 185.24 157.847 183.656 158.167 182.344H156.743ZM152.119 180.104C152.119 178.792 153.143 177.576 154.439 177.576C156.183 177.576 156.743 178.792 156.823 180.104H152.119ZM161.316 176.536H159.892V185H161.316V181.128H165.268V185H166.692V176.536H165.268V179.944H161.316V176.536ZM174.447 182.344C174.447 182.968 173.599 184.008 172.271 184.008C170.639 184.008 169.823 182.984 169.823 181.24H175.983C175.983 178.248 174.783 176.296 172.351 176.296C169.551 176.296 168.303 178.36 168.303 181C168.303 183.448 169.695 185.24 172.063 185.24C174.671 185.24 175.551 183.656 175.871 182.344H174.447ZM169.823 180.104C169.823 178.792 170.847 177.576 172.143 177.576C173.887 177.576 174.447 178.792 174.527 180.104H169.823ZM181.339 177.576C183.387 177.576 183.531 179.752 183.531 181.144C183.531 183.4 182.187 184.008 181.291 184.008C179.739 184.008 179.019 182.584 179.019 180.744C179.019 179.64 179.131 177.576 181.339 177.576ZM177.595 188.344H179.019V184.008C179.419 184.696 180.171 185.24 181.307 185.24C184.187 185.24 184.987 182.536 184.987 180.52C184.987 178.12 183.723 176.296 181.483 176.296C180.011 176.296 179.387 177.048 178.923 177.736V176.536H177.595V188.344ZM187.874 179.112C187.954 178.472 188.178 177.48 189.794 177.48C191.138 177.48 191.762 177.912 191.762 178.84C191.762 179.72 191.602 179.896 189.378 180.072C186.402 180.296 186.146 181.784 186.146 182.792C186.146 184.264 187.234 185.24 188.786 185.24C190.434 185.24 191.282 184.456 191.842 183.864C191.906 184.504 192.082 185.16 193.346 185.16C193.666 185.16 193.874 185.064 194.114 185V183.96C193.954 183.992 193.778 184.024 193.65 184.024C193.362 184.024 193.186 183.848 193.186 183.496V178.664C193.186 176.488 190.722 176.296 190.05 176.296C187.954 176.296 186.562 177.08 186.562 179.112H187.874ZM191.762 182.072C191.762 183.208 190.482 184.056 189.154 184.056C188.098 184.056 187.602 183.496 187.602 182.568C187.602 181.496 188.722 181.304 189.426 181.208C191.186 180.984 191.538 180.856 191.762 180.68V182.072ZM196.427 176.536V181.096C196.427 183.576 196.123 183.928 195.323 183.928C195.083 183.928 194.859 183.912 194.747 183.896V185C194.971 185.064 195.275 185.128 195.659 185.128C197.003 185.128 197.851 184.136 197.851 181.576V177.72H201.195V185H202.619V176.536H196.427ZM206.128 176.536H204.704V185H208.176C210.464 185 211.36 183.864 211.36 182.552C211.36 181.064 210.304 179.944 208.144 179.944H206.128V176.536ZM206.128 181.128H208.16C209.312 181.128 209.904 181.592 209.904 182.472C209.904 183.416 209.456 183.816 208.16 183.816H206.128V181.128ZM214.394 176.536H212.97V185H214.394V181.128H218.346V185H219.77V176.536H218.346V179.944H214.394V176.536ZM231.381 176.536H229.957V185H231.381V176.536ZM223.269 176.536H221.845V185H225.317C227.605 185 228.501 183.864 228.501 182.552C228.501 181.064 227.445 179.944 225.285 179.944H223.269V176.536ZM223.269 181.128H225.301C226.453 181.128 227.045 181.592 227.045 182.472C227.045 183.416 226.597 183.816 225.301 183.816H223.269V181.128ZM234.878 176.536H233.454V185H234.942L239.086 178.664H239.118V185H240.542V176.536H239.054L234.91 182.872H234.878V176.536ZM235.486 173.384H234.686C234.686 173.992 234.974 175.592 237.166 175.592C239.294 175.592 239.566 173.96 239.566 173.384H238.782C238.558 174.056 238.238 174.664 237.134 174.664C236.014 174.664 235.614 174.104 235.486 173.384ZM248.118 176.536V179.288C248.118 180.872 247.958 182.344 247.174 183.816H246.23V187.48H247.526V185H253.686V187.48H254.982V183.816H254.038V176.536H248.118ZM252.614 183.816H248.646C249.302 182.424 249.494 181.064 249.494 179.256V177.72H252.614V183.816ZM257.737 176.536H256.313V185H257.801L261.945 178.664H261.977V185H263.401V176.536H261.913L257.769 182.872H257.737V176.536ZM269.229 177.576C271.277 177.576 271.421 179.752 271.421 181.144C271.421 183.4 270.077 184.008 269.181 184.008C267.629 184.008 266.909 182.584 266.909 180.744C266.909 179.64 267.021 177.576 269.229 177.576ZM265.485 188.344H266.909V184.008C267.309 184.696 268.061 185.24 269.197 185.24C272.077 185.24 272.877 182.536 272.877 180.52C272.877 178.12 271.613 176.296 269.373 176.296C267.901 176.296 267.277 177.048 266.813 177.736V176.536H265.485V188.344ZM280.181 182.344C280.181 182.968 279.333 184.008 278.005 184.008C276.373 184.008 275.557 182.984 275.557 181.24H281.717C281.717 178.248 280.517 176.296 278.085 176.296C275.285 176.296 274.037 178.36 274.037 181C274.037 183.448 275.429 185.24 277.797 185.24C280.405 185.24 281.285 183.656 281.605 182.344H280.181ZM275.557 180.104C275.557 178.792 276.581 177.576 277.877 177.576C279.621 177.576 280.181 178.792 280.261 180.104H275.557ZM284.753 176.536H283.329V185H284.753V181.8L285.953 180.68L288.689 185H290.385L286.961 179.688L290.193 176.536H288.385L284.753 180.216V176.536ZM290.76 176.536V177.72H293.544V185H294.968V177.72H297.752V176.536H290.76ZM298.537 180.76C298.537 182.936 299.753 185.24 302.457 185.24C305.161 185.24 306.377 182.936 306.377 180.76C306.377 178.584 305.161 176.296 302.457 176.296C299.753 176.296 298.537 178.584 298.537 180.76ZM299.993 180.76C299.993 179.624 300.425 177.528 302.457 177.528C304.489 177.528 304.921 179.624 304.921 180.76C304.921 181.896 304.489 184.008 302.457 184.008C300.425 184.008 299.993 181.896 299.993 180.76ZM311.729 177.576C313.777 177.576 313.921 179.752 313.921 181.144C313.921 183.4 312.577 184.008 311.681 184.008C310.129 184.008 309.409 182.584 309.409 180.744C309.409 179.64 309.521 177.576 311.729 177.576ZM307.985 188.344H309.409V184.008C309.809 184.696 310.561 185.24 311.697 185.24C314.577 185.24 315.377 182.536 315.377 180.52C315.377 178.12 314.113 176.296 311.873 176.296C310.401 176.296 309.777 177.048 309.313 177.736V176.536H307.985V188.344Z" fill="#828282"/>
<rect x="-0.5" y="0.5" width="51" height="93" transform="matrix(-1 0 0 1 91 176)" stroke="#E0E0E0"/>
<path d="M69 226.571L65.3542 223L69 219.429L68.2708 218L63.1667 223L68.2708 228L69 226.571Z" fill="#242627"/>
<rect x="1388" y="176" width="52" height="94" fill="white"/>
<path d="M1411 226.571L1414.65 223L1411 219.429L1411.73 218L1416.83 223L1411.73 228L1411 226.571Z" fill="#242627"/>
</svg>
